<svg version="1" xmlns="http://www.w3.org/2000/svg" width="1024" height="1024" viewBox="0 0 768.000000 768.000000"><path d="M289 1.7c-2.5.9-4.8 2-5.1 2.5-.3.5-1 .9-1.5.9-1.7-.1-4.4 1-4.4 2 0 .5-.4.9-1 .9-2.1 0-11.3 7.5-14.5 11.9-1.9 2.5-3.8 5-4.3 5.6-.4.5-2.7 3.8-5.1 7.3l-4.3 6.3-4-4.5c-2.2-2.5-4.3-4.6-4.7-4.6-.8 0-2.8 7.6-4.1 16.2-.7 4.3-1 36.3-.8 92.5.3 76.6.5 86.3 1.9 90.3.9 2.5 2 5.8 2.4 7.5l.7 3 4.4-4.9c2.5-2.7 4.6-4.7 4.9-4.5.2.2 2.6 3.9 5.4 8.2 7.9 12.1 19.7 23.7 22.4 22 .5-.3.7-.1.4.4-.4.6 1.6 2 4.6 3.3 11.4 5 13.7 5.2 45.6 5.7l30.5.5-8.5 2.7c-9.7 3.2-22.8 9.6-31.4 15.4-7.8 5.3-21.4 18.5-27.6 26.7-9.5 12.6-17.4 30.6-20.5 46.8-2.1 11-1.8 35.6.5 46.2 10.9 48.9 51 84.7 101 90.1 23.3 2.5 50-3.2 69.6-14.9 58.7-35 75-111.2 35.7-166.7-13.9-19.7-36.1-35.8-60.1-43.6l-8.4-2.7 30.9-.4c30.3-.5 31-.5 39.2-3.2 5.3-1.7 8-3.1 7.6-3.8-.4-.7-.3-.8.4-.4 1.6 1 8.4-3.6 15-10 3.1-3 5.3-5.4 5-5.4-.3 0 1.5-2.3 4.2-5 6.5-6.8 7.5-6.7 18.6 2.1 3.4 2.7 10.1 6.8 15 9.1 13.2 6.3 13.1 6.1 2.2 11.2-19.3 9-28.8 19.7-32.4 36.5-2.1 10-2 157.8.1 166.9 4.5 19.2 18.8 31.9 42.4 37.8l9.6 2.4h66.7c63.7 0 67.1-.1 75.5-2 17.5-4.1 31.3-12.9 38.3-24.6 7-11.7 6.9-9.7 6.9-98.4.1-87.8.2-86.2-6.2-96.9-5.1-8.4-12.9-15-25.1-20.9-5.9-2.9-10.4-5.7-10.1-6.2.3-.5 5.2-3.2 10.9-5.9 12.8-6.2 20-12.5 24.8-21.8 6.5-12.4 6.3-9.8 6.3-97.3 0-79.2 0-79.5-2.2-86.5-4-12.8-11.5-21.7-23.2-27.9-3.7-1.9-9.5-4-13.1-4.6-4.5-.8-30.6-1-86-.8l-79.5.3-6.3 2.4c-3.4 1.3-10.2 5.2-15 8.7-4.8 3.6-9.7 6.4-11 6.4-2.3 0-4.8-2.2-10.6-9.4-3.4-4.4-7.1-8.2-10.3-10.7-4.9-3.9-9.7-6.8-10.5-6.3-.4.3-.8.1-.8-.4 0-.6-2.8-2-6.2-3.1-6.1-2.1-7.4-2.1-96.2-2-79.2 0-90.6.2-94.6 1.6zM562 510c-20.6 3.7-37.3 15-44.5 30.2-7.3 15.4-7 11.9-7 93.8 0 68 .1 74 1.8 80 5.6 20.1 17 32.9 34.2 38.3 7 2.2 7.3 2.2 87 2.2s80 0 87-2.2c12.4-3.9 21.6-11.4 27.4-22.3 6.1-11.4 6.1-10.8 6.1-96.2 0-52.9-.4-79.4-1.1-83-3.8-18.4-15.9-30.5-38.4-38.5l-8-2.8-70-.2c-38.5 0-72 .2-74.5.7zM300.5 515.2c-12.9 2.4-25.6 12.1-31.4 24-6.1 12.3-6.2 14.5-5.9 98.4.3 70.5.5 76.3 2.2 81.4 5.6 16.8 14.9 26.5 30.6 32.2l6.5 2.3 76.3.3c83.5.3 87.1.1 98.8-5.4 11.8-5.5 21-17.7 25.4-33.6 1.9-7 2-10 2-81.8 0-82.9.3-78.5-7-93.3-6.1-12.4-19-22.1-32.9-24.7-6.9-1.3-157.6-1.1-164.6.2zM250.7 551.9c-.9 4.5-.8 162.1.2 164.6.6 1.5.9 1.1 1.4-2 .9-5.3.7-159.1-.2-163l-.7-3-.7 3.4z"/></svg>